<svg xmlns="http://www.w3.org/2000/svg" viewBox="0 0 64 64">
  <!-- Background circle -->
  <circle cx="32" cy="32" r="30" fill="#1a472a" stroke="#0d2818" stroke-width="2"/>
  <!-- Horse head silhouette -->
  <path d="M 20 48
           C 18 42, 16 36, 18 30
           C 19 26, 22 22, 26 20
           L 28 16
           C 29 14, 31 13, 33 14
           L 32 18
           C 34 17, 38 16, 42 18
           C 46 20, 48 24, 48 28
           C 48 30, 47 32, 46 34
           L 50 36
           C 51 37, 51 39, 50 40
           L 46 38
           C 44 42, 40 46, 36 48
           C 32 50, 26 50, 22 48
           Z"
        fill="#d4af37" stroke="#b8960c" stroke-width="1"/>
  <!-- Eye -->
  <circle cx="38" cy="26" r="2.5" fill="#1a472a"/>
  <!-- Nostril -->
  <ellipse cx="47" cy="37" rx="1.5" ry="2" fill="#1a472a"/>
</svg>
